<svg width="144" height="39" viewBox="0 0 144 39" fill="none" xmlns="http://www.w3.org/2000/svg">
<g filter="url(#filter0_i)">
<path d="M8.20189 13.773C8.20189 14.2166 8.32959 14.6131 8.58499 14.9626C8.84711 15.3121 9.18988 15.6381 9.61331 15.9405C10.0435 16.2362 10.5274 16.5185 11.0651 16.7874C11.6095 17.0562 12.1639 17.3351 12.7285 17.6241C13.2998 17.9064 13.8543 18.2122 14.392 18.5416C14.9364 18.8642 15.4203 19.2305 15.8437 19.6405C16.2739 20.0504 16.6166 20.5142 16.872 21.0317C17.1342 21.5492 17.2652 22.1407 17.2652 22.8061C17.2652 23.411 17.1678 23.9688 16.9729 24.4796C16.7779 24.9837 16.5091 25.4374 16.1663 25.8406C15.8303 26.2439 15.4304 26.6001 14.9666 26.9093C14.5029 27.2184 14.0022 27.4738 13.4645 27.6755C12.9268 27.8771 12.3622 28.0283 11.7708 28.1291C11.1793 28.2367 10.5845 28.2904 9.98633 28.2904C9.14619 28.2904 8.32959 28.1863 7.5365 27.9779C6.74342 27.7763 6.03771 27.4671 5.41937 27.0504C4.80104 26.6404 4.30368 26.1263 3.9273 25.5079C3.55764 24.8829 3.37281 24.1536 3.37281 23.3202C3.37281 22.8901 3.44003 22.5137 3.57445 22.1911C3.71559 21.8618 3.88697 21.5896 4.08861 21.3745C4.29696 21.1527 4.52211 20.988 4.76407 20.8805C5.00603 20.7662 5.23118 20.7091 5.43954 20.7091C5.65461 20.7091 5.83272 20.7696 5.97386 20.8906C6.12172 21.0048 6.19565 21.1863 6.19565 21.435C6.19565 21.5492 6.18221 21.6702 6.15533 21.7979C6.12844 21.9256 6.0982 22.0668 6.06459 22.2213C6.03771 22.3692 6.01083 22.5339 5.98394 22.7153C5.95706 22.8968 5.94362 23.0951 5.94362 23.3101C5.94362 23.7806 6.05115 24.1872 6.26623 24.53C6.4813 24.8728 6.76694 25.1551 7.12316 25.3769C7.47937 25.5987 7.88936 25.7633 8.35311 25.8709C8.81686 25.9784 9.29742 26.0322 9.79478 26.0322C10.3795 26.0322 10.9642 25.9616 11.549 25.8205C12.1337 25.6793 12.6579 25.471 13.1217 25.1954C13.5854 24.9198 13.9618 24.5838 14.2508 24.1872C14.5398 23.784 14.6843 23.3236 14.6843 22.8061C14.6843 22.3289 14.5533 21.9021 14.2912 21.5257C14.0358 21.1493 13.693 20.8032 13.2628 20.4873C12.8394 20.1647 12.3555 19.8622 11.8111 19.58C11.2667 19.2977 10.7122 19.012 10.1476 18.723C9.58306 18.434 9.02858 18.1316 8.48417 17.8157C7.93977 17.4931 7.45249 17.1402 7.02234 16.7571C6.59892 16.374 6.25614 15.9472 5.99402 15.4768C5.73862 14.9996 5.61092 14.4585 5.61092 13.8536C5.61092 13.2891 5.74534 12.7346 6.01419 12.1902C6.28975 11.639 6.69973 11.1484 7.24414 10.7183C7.79526 10.2814 8.48081 9.92854 9.30078 9.6597C10.1207 9.39086 11.0819 9.25643 12.1841 9.25643C12.8831 9.25643 13.5653 9.36061 14.2307 9.56896C14.9028 9.77732 15.5009 10.073 16.0252 10.4561C16.5494 10.8392 16.9695 11.2963 17.2854 11.8272C17.608 12.3582 17.7693 12.9463 17.7693 13.5915C17.7693 13.9746 17.7021 14.3678 17.5677 14.7711C17.44 15.1743 17.2316 15.5944 16.9426 16.0313C16.6603 16.4547 16.3512 16.7706 16.0151 16.9789C15.6858 17.1805 15.3867 17.2814 15.1178 17.2814C14.9162 17.2814 14.7515 17.2242 14.6238 17.11C14.4961 16.989 14.4323 16.8109 14.4323 16.5757C14.4323 16.4009 14.4726 16.1959 14.5533 15.9607C14.6339 15.7187 14.7717 15.4432 14.9666 15.134C15.1481 14.8383 15.2825 14.5627 15.3699 14.3073C15.4573 14.0452 15.5009 13.8032 15.5009 13.5814C15.5009 13.2387 15.4069 12.9396 15.2187 12.6842C15.0372 12.422 14.7818 12.2036 14.4525 12.0289C14.1299 11.8541 13.74 11.7231 13.283 11.6357C12.826 11.5483 12.3253 11.5046 11.7808 11.5046C11.176 11.5046 10.6483 11.5752 10.198 11.7163C9.75445 11.8508 9.38143 12.0289 9.07898 12.2507C8.78326 12.4657 8.56146 12.7077 8.4136 12.9765C8.27246 13.2454 8.20189 13.5109 8.20189 13.773ZM25.3305 24.8526C25.0885 25.0744 24.7861 25.313 24.4231 25.5684C24.0669 25.8171 23.6805 26.049 23.2638 26.264C22.847 26.4724 22.4203 26.6471 21.9834 26.7883C21.5532 26.9294 21.1433 27 20.7534 27C20.4039 27 20.1082 26.953 19.8663 26.8589C19.631 26.758 19.4395 26.6203 19.2916 26.4455C19.1438 26.2708 19.0362 26.0591 18.969 25.8104C18.9085 25.555 18.8783 25.2761 18.8783 24.9736C18.8783 24.5502 18.9253 24.0595 19.0194 23.5017C19.1202 22.9371 19.2412 22.3558 19.3823 21.7576C19.5235 21.1527 19.6714 20.5512 19.8259 19.953C19.9872 19.3548 20.1284 18.8037 20.2494 18.2996C20.2964 18.1249 20.3905 17.977 20.5316 17.856C20.6728 17.7283 20.8307 17.6275 21.0055 17.5536C21.187 17.4729 21.3718 17.4158 21.56 17.3822C21.7549 17.3419 21.9296 17.3217 22.0842 17.3217C22.3665 17.3217 22.558 17.3755 22.6589 17.483C22.7597 17.5838 22.8101 17.7216 22.8101 17.8963C22.8101 18.0442 22.7765 18.2593 22.7093 18.5416C22.6421 18.8171 22.558 19.133 22.4572 19.4892C22.3564 19.8387 22.2489 20.2185 22.1346 20.6284C22.0204 21.0317 21.9128 21.4383 21.812 21.8483C21.7112 22.2516 21.6272 22.6481 21.56 23.0379C21.4928 23.421 21.4592 23.7672 21.4592 24.0763C21.4592 24.3788 21.4928 24.6207 21.56 24.8022C21.6272 24.977 21.765 25.0643 21.9733 25.0643C22.2153 25.0643 22.4841 24.9803 22.7798 24.8123C23.0756 24.6443 23.3747 24.4426 23.6771 24.2074C23.9795 23.9654 24.2753 23.7168 24.5643 23.4614C24.8533 23.206 25.1087 22.9875 25.3305 22.8061V24.8526ZM20.824 14.4888C20.824 14.3342 20.8576 14.1594 20.9248 13.9645C20.992 13.7696 21.0996 13.5881 21.2474 13.4201C21.402 13.2454 21.6037 13.1009 21.8523 12.9866C22.1077 12.8656 22.4236 12.8051 22.8 12.8051C23.0352 12.8051 23.257 12.832 23.4654 12.8858C23.6737 12.9396 23.8552 13.0236 24.0098 13.1378C24.1644 13.2454 24.2854 13.3899 24.3727 13.5713C24.4668 13.7528 24.5139 13.9679 24.5139 14.2166C24.5139 14.4451 24.4769 14.6669 24.403 14.882C24.329 15.097 24.2114 15.2886 24.0501 15.4566C23.8888 15.6246 23.6838 15.7624 23.4351 15.8699C23.1932 15.9708 22.9008 16.0212 22.558 16.0212C21.9666 16.0212 21.5297 15.8834 21.2474 15.6078C20.9652 15.3255 20.824 14.9525 20.824 14.4888ZM28.8187 25.1147C28.8187 25.0274 28.8254 24.903 28.8389 24.7417C28.8523 24.5804 28.8725 24.3956 28.8994 24.1872C28.9262 23.9789 28.9565 23.7605 28.9901 23.5319C29.0237 23.2967 29.0573 23.0648 29.0909 22.8363C29.1648 22.2986 29.2556 21.7206 29.3631 21.1023H29.2119C29.1312 21.2031 29.0371 21.3543 28.9296 21.556C28.8288 21.7576 28.6843 22.0533 28.4961 22.4431C28.3079 22.833 28.0659 23.3404 27.7702 23.9654C27.4812 24.5838 27.1048 25.3601 26.6411 26.2943C26.5067 26.5699 26.3487 26.758 26.1672 26.8589C25.9925 26.953 25.7976 27 25.5825 27C25.307 27 25.0852 26.9429 24.9171 26.8286C24.7491 26.7076 24.618 26.5497 24.524 26.3548C24.4366 26.1531 24.3761 25.928 24.3425 25.6793C24.3156 25.4239 24.3022 25.1618 24.3022 24.893C24.3022 24.6174 24.319 24.2914 24.3526 23.915C24.3862 23.5387 24.4299 23.1421 24.4836 22.7254C24.5374 22.3087 24.5979 21.8853 24.6651 21.4551C24.739 21.0183 24.813 20.6016 24.8869 20.205C24.9675 19.8085 25.0482 19.4455 25.1288 19.1162C25.2095 18.7869 25.2834 18.518 25.3506 18.3097C25.4179 18.0946 25.4817 17.9232 25.5422 17.7955C25.6027 17.6678 25.6699 17.5704 25.7438 17.5032C25.8245 17.4292 25.9186 17.3822 26.0261 17.362C26.1336 17.3351 26.2714 17.3217 26.4394 17.3217C26.6948 17.3217 26.8931 17.3318 27.0343 17.3519C27.1821 17.3654 27.2897 17.4057 27.3569 17.4729C27.4308 17.5334 27.4745 17.6241 27.4879 17.7451C27.5014 17.8661 27.5081 18.0308 27.5081 18.2391C27.5081 18.3534 27.5014 18.4844 27.4879 18.6323C27.4812 18.7802 27.4678 18.9381 27.4476 19.1061C27.4274 19.2742 27.4039 19.4489 27.377 19.6304C27.3569 19.8051 27.3333 19.9765 27.3065 20.1445C27.246 20.5411 27.1821 20.9511 27.1149 21.3745L27.2258 21.4955C27.2393 21.4753 27.3098 21.3476 27.4375 21.1124C27.5719 20.8771 27.7333 20.5948 27.9214 20.2655C28.1164 19.9362 28.3247 19.5934 28.5465 19.2372C28.7683 18.8743 28.98 18.555 29.1816 18.2794C29.3765 18.0039 29.5815 17.7754 29.7966 17.5939C30.0184 17.4124 30.2805 17.3217 30.583 17.3217C30.8653 17.3217 31.1072 17.4057 31.3088 17.5737C31.5105 17.735 31.6113 17.9669 31.6113 18.2694C31.6113 18.5315 31.5945 18.7802 31.5609 19.0154C31.5273 19.2506 31.4836 19.4791 31.4298 19.7009C31.3828 19.9227 31.3324 20.1412 31.2786 20.3562C31.2248 20.5646 31.1744 20.7797 31.1274 21.0015C31.0938 21.156 31.0736 21.2535 31.0669 21.2938C31.0602 21.3342 31.0568 21.361 31.0568 21.3745L31.1677 21.4955C31.1811 21.4753 31.2584 21.351 31.3996 21.1224C31.5407 20.8872 31.7121 20.6049 31.9137 20.2756C32.1221 19.9463 32.3405 19.6001 32.569 19.2372C32.8043 18.8743 33.0227 18.555 33.2243 18.2794C33.4193 18.0106 33.6142 17.7854 33.8091 17.604C34.004 17.4158 34.2426 17.3217 34.5249 17.3217C34.8408 17.3217 35.1062 17.4057 35.3213 17.5737C35.5431 17.735 35.654 17.9669 35.654 18.2694C35.654 18.7331 35.6305 19.1733 35.5834 19.59C35.5364 20.0067 35.4826 20.4167 35.4221 20.82C35.3616 21.2233 35.3079 21.6332 35.2608 22.0499C35.2138 22.4599 35.1903 22.8968 35.1903 23.3606C35.1903 23.7235 35.2373 24.0192 35.3314 24.2477C35.4255 24.4762 35.5397 24.5905 35.6742 24.5905C35.8153 24.5905 35.9632 24.5603 36.1178 24.4998C36.2723 24.4393 36.4303 24.362 36.5916 24.2679C36.7529 24.1738 36.9108 24.0663 37.0654 23.9453C37.22 23.8176 37.3679 23.6865 37.509 23.5521C37.8383 23.2429 38.1643 22.8934 38.4869 22.5036L38.6583 24.8829C38.3626 25.1181 38.0669 25.3634 37.7711 25.6188C37.4821 25.8675 37.173 26.096 36.8436 26.3044C36.521 26.506 36.1648 26.674 35.775 26.8085C35.3852 26.9362 34.9449 27 34.4543 27C34.2123 27 34.0073 26.9227 33.8393 26.7681C33.678 26.6068 33.547 26.385 33.4461 26.1027C33.3453 25.8205 33.2714 25.4878 33.2243 25.1047C33.184 24.7216 33.1639 24.3049 33.1639 23.8545C33.1639 23.4311 33.1773 22.9842 33.2042 22.5137C33.2378 22.0365 33.2815 21.556 33.3352 21.072H33.184L31.1375 26.2842C30.9627 26.5665 30.7678 26.758 30.5527 26.8589C30.3377 26.953 30.089 27 29.8067 27C29.5916 27 29.4202 26.9429 29.2925 26.8286C29.1648 26.7076 29.064 26.5564 28.9901 26.3749C28.9229 26.1868 28.8758 25.9818 28.8489 25.76C28.8288 25.5382 28.8187 25.3231 28.8187 25.1147ZM44.0419 19.4489C44.2368 19.8387 44.3813 20.2521 44.4754 20.6889C44.5762 21.1191 44.6266 21.5324 44.6266 21.929C44.6266 22.3255 44.5829 22.7254 44.4955 23.1287C44.4082 23.5319 44.2805 23.9218 44.1124 24.2981C43.9511 24.6745 43.7495 25.0274 43.5076 25.3567C43.2723 25.686 43.0001 25.9717 42.6909 26.2136C42.3885 26.4556 42.0558 26.6471 41.6929 26.7883C41.3299 26.9294 40.9435 27 40.5335 27C39.942 27 39.4346 26.8723 39.0112 26.6169C38.5945 26.3548 38.2517 26.0154 37.9828 25.5987C37.714 25.182 37.5157 24.7115 37.388 24.1872C37.2671 23.663 37.2066 23.132 37.2066 22.5944C37.2066 21.855 37.3175 21.1661 37.5393 20.5276C37.7611 19.8824 38.0769 19.3246 38.4869 18.8541C38.9036 18.3769 39.4111 18.0039 40.0092 17.735C40.6074 17.4595 41.2795 17.3217 42.0256 17.3217C42.6641 17.3217 43.2622 17.4225 43.8201 17.6241C44.3779 17.819 44.8988 18.0845 45.3827 18.4206C45.8734 18.7499 46.327 19.1297 46.7437 19.5598C47.1672 19.9899 47.5603 20.4335 47.9233 20.8906L47.7317 22.3121C47.5503 22.0701 47.3049 21.808 46.9958 21.5257C46.6866 21.2434 46.3573 20.9679 46.0078 20.699C45.665 20.4302 45.3256 20.1781 44.9895 19.9429C44.6535 19.7009 44.3645 19.4993 44.1225 19.338L44.0419 19.4489ZM40.9267 25.0643C41.1552 25.0643 41.377 24.9501 41.5921 24.7216C41.8071 24.4863 41.9953 24.194 42.1566 23.8445C42.3179 23.4883 42.4456 23.0984 42.5397 22.675C42.6405 22.2449 42.6909 21.8349 42.6909 21.4451C42.6909 21.1359 42.6674 20.8502 42.6204 20.5881C42.5733 20.3193 42.5028 20.0874 42.4087 19.8925C42.3146 19.6976 42.1936 19.543 42.0457 19.4287C41.8979 19.3145 41.7198 19.2574 41.5114 19.2574C41.2358 19.2574 40.9737 19.375 40.725 19.6102C40.4764 19.8454 40.2579 20.1479 40.0697 20.5175C39.8815 20.8805 39.7337 21.2837 39.6261 21.7273C39.5186 22.1709 39.4648 22.5977 39.4648 23.0077C39.4648 23.29 39.4917 23.5555 39.5455 23.8041C39.5993 24.0528 39.6833 24.2713 39.7975 24.4594C39.9118 24.6409 40.063 24.7888 40.2512 24.903C40.4394 25.0106 40.6645 25.0643 40.9267 25.0643ZM46.6631 24.893C46.6631 24.4494 46.69 23.9386 46.7437 23.3606C46.7975 22.7758 46.8647 22.1844 46.9454 21.5862C47.026 20.9813 47.1168 20.3999 47.2176 19.8421C47.3184 19.2842 47.4158 18.807 47.5099 18.4105C47.5839 18.1013 47.725 17.8426 47.9334 17.6342C48.1484 17.4259 48.4374 17.3217 48.8004 17.3217C49.1633 17.3217 49.4154 17.4326 49.5565 17.6544C49.6976 17.8762 49.7682 18.1719 49.7682 18.5416C49.7682 18.6424 49.7581 18.7802 49.738 18.9549C49.7178 19.1229 49.6909 19.3111 49.6573 19.5195C49.6304 19.7211 49.6002 19.9328 49.5666 20.1546C49.533 20.3697 49.4994 20.5713 49.4658 20.7595C49.4389 20.941 49.4154 21.1023 49.3952 21.2434C49.375 21.3778 49.3649 21.4686 49.3649 21.5156H49.5666C49.6069 21.4417 49.6708 21.3241 49.7581 21.1628C49.8455 20.9947 49.9463 20.8032 50.0606 20.5881C50.1748 20.373 50.2958 20.1479 50.4235 19.9127C50.5579 19.6707 50.6823 19.4422 50.7965 19.2271C50.9108 19.0053 51.015 18.8104 51.1091 18.6424C51.2032 18.4744 51.2737 18.35 51.3208 18.2694C51.5358 17.9064 51.7812 17.6577 52.0567 17.5233C52.3323 17.3889 52.6381 17.3217 52.9741 17.3217C53.3102 17.3217 53.5757 17.4628 53.7706 17.7451C53.9722 18.0274 54.073 18.4172 54.073 18.9146C54.073 18.9885 54.0562 19.1129 54.0226 19.2876C53.9957 19.4623 53.9588 19.6707 53.9117 19.9127C53.8647 20.1546 53.8109 20.4201 53.7504 20.7091C53.6967 20.9981 53.6463 21.2938 53.5992 21.5963C53.5522 21.8987 53.5118 22.1978 53.4782 22.4935C53.4513 22.7893 53.4379 23.0615 53.4379 23.3101C53.4379 23.7268 53.4883 24.0696 53.5891 24.3385C53.6967 24.6073 53.8613 24.7417 54.0831 24.7417C54.1839 24.7417 54.2982 24.7115 54.4259 24.651C54.5603 24.5905 54.7015 24.5132 54.8493 24.4191C55.0039 24.3183 55.1585 24.204 55.3131 24.0763C55.4744 23.9486 55.6323 23.8176 55.7869 23.6832C56.1431 23.3673 56.5161 23.0111 56.906 22.6145L57.0773 24.8728L56.5733 25.2559C56.2977 25.4642 56.0154 25.6726 55.7264 25.8809C55.4441 26.0893 55.1484 26.2775 54.8392 26.4455C54.5301 26.6068 54.2075 26.7412 53.8714 26.8488C53.5354 26.9496 53.1825 27 52.8128 27C52.4432 27 52.1307 26.7345 51.8753 26.2036C51.6266 25.6659 51.5022 24.8829 51.5022 23.8545C51.5022 23.4513 51.5291 23.0178 51.5829 22.554C51.6367 22.0836 51.7039 21.5795 51.7845 21.0418H51.6232L48.9818 26.2842C48.8474 26.5598 48.6962 26.748 48.5282 26.8488C48.3601 26.9496 48.1652 27 47.9434 27C47.6679 27 47.4461 26.9429 47.2781 26.8286C47.11 26.7076 46.979 26.5497 46.8849 26.3548C46.7975 26.1531 46.737 25.928 46.7034 25.6793C46.6765 25.4239 46.6631 25.1618 46.6631 24.893ZM61.1805 19.2574C61.2343 19.0288 61.3284 18.8272 61.4628 18.6525C61.604 18.471 61.7619 18.3198 61.9367 18.1988C62.1181 18.0778 62.3063 17.9871 62.5012 17.9266C62.6961 17.8661 62.881 17.8359 63.0557 17.8359C63.2641 17.8359 63.4388 17.8829 63.58 17.977C63.7211 18.0644 63.7917 18.2055 63.7917 18.4004C63.7917 18.4609 63.7816 18.5315 63.7614 18.6121C63.7211 18.7869 63.6707 19.0255 63.6102 19.3279C63.5497 19.6304 63.4825 19.9731 63.4086 20.3562C63.3414 20.7393 63.2708 21.146 63.1969 21.5761C63.1229 21.9995 63.0524 22.423 62.9851 22.8464C62.8171 23.8411 62.6457 24.9098 62.471 26.0523C62.6726 25.9381 62.8911 25.7969 63.1263 25.6289C63.3615 25.4609 63.6236 25.2357 63.9127 24.9534C64.2017 24.6712 64.5243 24.3183 64.8805 23.8949C65.2367 23.4647 65.6366 22.9304 66.0802 22.2919L66.5641 24.53C66.4431 24.7384 66.2852 24.9534 66.0903 25.1752C65.9021 25.3903 65.6904 25.6087 65.4551 25.8305C65.2266 26.0456 64.9847 26.2573 64.7293 26.4657C64.4806 26.6673 64.2353 26.8589 63.9933 27.0403C63.422 27.4705 62.807 27.8872 62.1484 28.2904C62.0207 29.0096 61.8695 29.7086 61.6947 30.3874C61.52 31.073 61.3116 31.7115 61.0696 32.3029C60.8344 32.9011 60.5622 33.4488 60.253 33.9462C59.9506 34.4436 59.6045 34.8703 59.2146 35.2266C58.8315 35.5828 58.4014 35.8583 57.9242 36.0533C57.447 36.2549 56.9194 36.3557 56.3414 36.3557C56.1129 36.3557 55.8642 36.3322 55.5954 36.2851C55.3332 36.2381 55.0879 36.144 54.8594 36.0028C54.6376 35.8617 54.4528 35.6601 54.3049 35.3979C54.1571 35.1358 54.0831 34.7863 54.0831 34.3495C54.0831 34.047 54.1604 33.7042 54.315 33.3211C54.4696 32.9448 54.6813 32.5449 54.9501 32.1214C55.219 31.7047 55.5382 31.2679 55.9079 30.8108C56.2775 30.3605 56.6774 29.9102 57.1076 29.4599C57.5445 29.0096 57.9981 28.566 58.4686 28.1291C58.9458 27.6923 59.4264 27.2756 59.9103 26.879L60.1825 25.9414C59.8195 26.264 59.4398 26.5262 59.0433 26.7278C58.6534 26.9227 58.2737 27.0202 57.904 27.0202C57.5814 27.0202 57.2655 26.9563 56.9564 26.8286C56.6539 26.6942 56.3851 26.506 56.1498 26.264C55.9146 26.0154 55.7264 25.7163 55.5853 25.3668C55.4441 25.0106 55.3736 24.6107 55.3736 24.1671C55.3736 23.5823 55.4004 23.0447 55.4542 22.554C55.5147 22.0634 55.5987 21.5963 55.7063 21.1527C55.8138 20.7091 55.9482 20.2823 56.1095 19.8723C56.2708 19.4556 56.4556 19.0356 56.664 18.6121C56.8186 18.3097 57.0404 18.0812 57.3294 17.9266C57.6184 17.7653 57.9007 17.6846 58.1762 17.6846C58.4115 17.6846 58.6131 17.7451 58.7811 17.8661C58.9492 17.9804 59.0332 18.1618 59.0332 18.4105C59.0332 18.4844 59.0231 18.5651 59.0029 18.6525C58.9895 18.7398 58.9626 18.8339 58.9223 18.9347C58.8013 19.2439 58.6803 19.6102 58.5593 20.0336C58.4451 20.4503 58.3409 20.8805 58.2468 21.3241C58.1594 21.7609 58.0889 22.1911 58.0351 22.6145C57.9813 23.0379 57.9544 23.411 57.9544 23.7336C57.9544 23.9016 57.9645 24.0663 57.9847 24.2276C58.0116 24.3822 58.0553 24.5233 58.1157 24.651C58.1762 24.772 58.2569 24.8728 58.3577 24.9534C58.4585 25.0274 58.5862 25.0643 58.7408 25.0643C58.9895 25.0643 59.2146 24.9568 59.4163 24.7417C59.6179 24.5267 59.7926 24.2679 59.9405 23.9654C60.0884 23.663 60.206 23.3505 60.2934 23.0279C60.3875 22.7053 60.448 22.4364 60.4748 22.2213L61.1805 19.2574ZM56.4624 34.42C56.7447 34.42 57.0101 34.336 57.2588 34.168C57.5142 34.0067 57.7461 33.7916 57.9544 33.5228C58.1695 33.2539 58.3644 32.9481 58.5392 32.6054C58.7139 32.2626 58.8685 31.9097 59.0029 31.5468C59.1373 31.1906 59.2516 30.8411 59.3457 30.4983C59.4398 30.1555 59.5137 29.8497 59.5675 29.5809C59.3054 29.7556 59.0365 29.964 58.761 30.2059C58.4921 30.4479 58.2266 30.7067 57.9645 30.9822C57.7091 31.2645 57.4638 31.5535 57.2286 31.8492C57.0001 32.145 56.7984 32.4272 56.6237 32.6961C56.4489 32.9717 56.3111 33.2271 56.2103 33.4623C56.1095 33.6975 56.0591 33.8924 56.0591 34.047C56.0591 34.2957 56.1935 34.42 56.4624 34.42ZM74.0245 26.012C73.9976 26.2136 73.9337 26.3783 73.8329 26.506C73.7321 26.6337 73.6111 26.7345 73.47 26.8085C73.3288 26.8824 73.1776 26.9362 73.0163 26.9698C72.855 26.9966 72.7004 27.0101 72.5526 27.0101C72.3778 27.0101 72.2064 26.9933 72.0384 26.9597C71.8771 26.9193 71.7326 26.8622 71.6049 26.7883C71.4772 26.7076 71.3764 26.6135 71.3024 26.506C71.2285 26.3917 71.1915 26.264 71.1915 26.1229C71.1915 25.8473 71.205 25.5953 71.2319 25.3668C71.2588 25.1315 71.2991 24.8963 71.3529 24.6611C71.541 23.8747 71.7057 23.1455 71.8468 22.4734C71.988 21.7945 72.109 21.1527 72.2098 20.5478C72.3106 19.9429 72.398 19.3582 72.4719 18.7936C72.5458 18.2223 72.6097 17.651 72.6635 17.0797C72.7239 16.5017 72.7777 15.9069 72.8248 15.2953C72.8718 14.6837 72.9222 14.0284 72.976 13.3294C72.976 13.2689 72.976 13.1916 72.976 13.0975C72.976 13.0034 72.9659 12.916 72.9457 12.8354C72.9256 12.748 72.8886 12.6741 72.8348 12.6136C72.7878 12.5531 72.7139 12.5229 72.613 12.5229C72.4517 12.5229 72.2535 12.58 72.0182 12.6943C71.7897 12.8018 71.5478 12.9496 71.2924 13.1378C71.037 13.326 70.7816 13.5478 70.5262 13.8032C70.2708 14.0519 70.0355 14.3207 69.8205 14.6097C69.7801 14.7106 69.7163 14.7845 69.6289 14.8315C69.5415 14.8719 69.4441 14.892 69.3365 14.892C69.3029 14.892 69.2693 14.8651 69.2357 14.8114C69.1954 14.7509 69.1618 14.6803 69.1349 14.5997C69.1013 14.519 69.0744 14.435 69.0543 14.3476C69.0341 14.2535 69.024 14.1695 69.024 14.0956C69.024 14.0553 69.0375 14.0217 69.0643 13.9948C69.3063 13.2017 69.5785 12.5397 69.8809 12.0087C70.1901 11.471 70.5127 11.0442 70.8488 10.7283C71.1915 10.4057 71.5377 10.1772 71.8872 10.0428C72.2434 9.90838 72.5828 9.84117 72.9054 9.84117C73.3221 9.84117 73.6683 9.92182 73.9438 10.0831C74.2194 10.2377 74.4378 10.4595 74.5991 10.7485C74.7604 11.0308 74.8713 11.3736 74.9318 11.7768C74.999 12.1801 75.0326 12.627 75.0326 13.1177C75.0326 13.4941 75.0024 13.9343 74.9419 14.4384C74.8814 14.9424 74.8041 15.4734 74.71 16.0313C74.6226 16.5824 74.5252 17.1369 74.4177 17.6947C74.3101 18.2526 74.2059 18.7734 74.1051 19.2574C74.3202 18.3635 74.5722 17.5065 74.8612 16.6866C75.157 15.8599 75.4762 15.0903 75.819 14.3779C76.1685 13.6587 76.5381 13.0101 76.928 12.4321C77.3178 11.8474 77.7177 11.3467 78.1277 10.93C78.5444 10.5133 78.9644 10.1907 79.3879 9.96214C79.8113 9.73363 80.2314 9.61937 80.6481 9.61937C80.9572 9.61937 81.2429 9.68658 81.505 9.821C81.7671 9.95542 81.9923 10.1638 82.1805 10.4461C82.3686 10.7283 82.5132 11.0846 82.614 11.5147C82.7215 11.9449 82.7753 12.4557 82.7753 13.0471C82.7753 13.1009 82.7686 13.1849 82.7551 13.2991C82.7484 13.4134 82.7349 13.5445 82.7148 13.6923C82.7013 13.8402 82.6812 14.0015 82.6543 14.1762C82.6341 14.3443 82.614 14.5123 82.5938 14.6803C82.54 15.0836 82.4829 15.5205 82.4224 15.9909L82.6341 15.9808C82.8963 14.9861 83.2189 14.0922 83.602 13.2991C83.9851 12.5061 84.4152 11.834 84.8924 11.2828C85.3696 10.725 85.8838 10.2982 86.4349 10.0025C86.986 9.70674 87.5573 9.55888 88.1488 9.55888C88.5587 9.55888 88.9217 9.67986 89.2376 9.92182C89.5602 10.1638 89.829 10.4931 90.0441 10.9098C90.2592 11.3198 90.4238 11.8037 90.5381 12.3616C90.6523 12.9127 90.7095 13.4974 90.7095 14.1158C90.7095 14.6938 90.6691 15.2886 90.5885 15.9002C90.5146 16.5051 90.4205 17.1066 90.3062 17.7048C90.1919 18.2962 90.0676 18.8776 89.9332 19.4489C89.8055 20.0202 89.6845 20.5612 89.5703 21.072C89.456 21.5828 89.3585 22.0567 89.2779 22.4935C89.204 22.9237 89.167 23.2967 89.167 23.6126C89.167 24.0091 89.2376 24.2981 89.3787 24.4796C89.5266 24.6544 89.7383 24.7417 90.0138 24.7417C90.1684 24.7417 90.3297 24.7014 90.4978 24.6207C90.6725 24.5334 90.8439 24.4225 91.0119 24.2881C91.1867 24.1469 91.3581 23.989 91.5261 23.8142C91.6941 23.6328 91.8554 23.4479 92.01 23.2597C92.3662 22.8296 92.7191 22.3356 93.0686 21.7777C93.0686 21.7845 93.0988 21.855 93.1593 21.9895C93.2063 22.1037 93.2836 22.2986 93.3912 22.5742C93.4987 22.8498 93.6499 23.2463 93.8448 23.7638C93.5088 24.3553 93.1627 24.856 92.8064 25.266C92.4502 25.676 92.0873 26.012 91.7176 26.2741C91.348 26.5295 90.9716 26.7144 90.5885 26.8286C90.2121 26.9429 89.8357 27 89.4594 27C89.0964 27 88.7402 26.9362 88.3907 26.8085C88.0479 26.6808 87.7421 26.4926 87.4733 26.2439C87.2044 25.9885 86.9894 25.676 86.8281 25.3063C86.6668 24.9299 86.5861 24.4998 86.5861 24.0159C86.5861 23.9621 86.5861 23.905 86.5861 23.8445C86.5928 23.784 86.5995 23.7235 86.6063 23.663C86.6332 23.2127 86.6903 22.7355 86.7777 22.2314C86.865 21.7206 86.9625 21.1964 87.07 20.6587C87.1843 20.121 87.3019 19.5732 87.4229 19.0154C87.5439 18.4575 87.6548 17.9031 87.7556 17.3519C87.8564 16.7941 87.9404 16.2463 88.0076 15.7086C88.0748 15.1642 88.1084 14.6434 88.1084 14.146C88.1084 13.8435 88.0983 13.5713 88.0782 13.3294C88.058 13.0807 88.0177 12.8724 87.9572 12.7043C87.8967 12.5296 87.8093 12.3952 87.6951 12.3011C87.5808 12.207 87.4296 12.1599 87.2414 12.1599C86.8852 12.1599 86.5491 12.2843 86.2333 12.5329C85.9174 12.7816 85.6183 13.1244 85.336 13.5613C85.0537 13.9981 84.7882 14.5157 84.5395 15.1138C84.2976 15.712 84.0657 16.3606 83.8439 17.0596C83.6288 17.7518 83.4272 18.4811 83.239 19.2473C83.0508 20.0067 82.8761 20.7729 82.7148 21.5459C82.5535 22.3188 82.4023 23.0816 82.2611 23.8344C82.12 24.5871 81.9889 25.2996 81.8679 25.9717C81.8142 26.1599 81.7301 26.3212 81.6159 26.4556C81.5084 26.5833 81.3807 26.6875 81.2328 26.7681C81.0917 26.8488 80.9404 26.9093 80.7791 26.9496C80.6178 26.9832 80.4565 27 80.2952 27C80.1541 27 80.0129 26.9731 79.8718 26.9193C79.7374 26.8656 79.6164 26.7816 79.5088 26.6673C79.408 26.5463 79.324 26.3951 79.2568 26.2136C79.1963 26.0322 79.1661 25.8104 79.1661 25.5483C79.1661 25.3735 79.2064 25.0744 79.287 24.651C79.3677 24.2208 79.4685 23.71 79.5895 23.1186C79.7172 22.5204 79.8516 21.8685 79.9928 21.1628C80.1406 20.4503 80.275 19.7278 80.396 18.9952C80.5237 18.2559 80.6279 17.5267 80.7086 16.8075C80.7892 16.0884 80.8295 15.4264 80.8295 14.8215C80.8295 14.4048 80.8194 14.0317 80.7993 13.7024C80.7791 13.3731 80.7321 13.0942 80.6581 12.8656C80.5842 12.6371 80.4767 12.4624 80.3355 12.3414C80.2011 12.2204 80.0196 12.1599 79.7911 12.1599C79.6029 12.1599 79.3879 12.2876 79.1459 12.543C78.9039 12.7984 78.6418 13.1513 78.3595 13.6016C78.084 14.0519 77.7983 14.5829 77.5026 15.1945C77.2069 15.7994 76.9112 16.4547 76.6154 17.1604C76.3264 17.8661 76.0441 18.6054 75.7686 19.3783C75.4997 20.1445 75.2511 20.9141 75.0225 21.687C74.794 22.4532 74.5924 23.206 74.4177 23.9453C74.2429 24.6779 74.1118 25.3668 74.0245 26.012ZM103.362 24.53C103.207 24.7451 102.999 24.9971 102.737 25.2861C102.481 25.5751 102.192 25.8507 101.87 26.1128C101.547 26.3749 101.201 26.5967 100.831 26.7782C100.462 26.9597 100.092 27.0504 99.7224 27.0504C99.2788 27.0504 98.9091 26.9093 98.6134 26.627C98.3177 26.338 98.0623 25.9213 97.8472 25.3769C97.6859 25.5651 97.4876 25.7566 97.2524 25.9515C97.0172 26.1464 96.7584 26.3245 96.4761 26.4858C96.2006 26.6404 95.9116 26.7681 95.6091 26.8689C95.3067 26.9698 95.0042 27.0202 94.7018 27.0202C94.3792 27.0202 94.0633 26.9563 93.7541 26.8286C93.4517 26.6942 93.1828 26.506 92.9476 26.264C92.7123 26.0154 92.5242 25.7163 92.383 25.3668C92.2419 25.0106 92.1713 24.6107 92.1713 24.1671C92.1713 23.663 92.2419 23.1455 92.383 22.6145C92.5242 22.0836 92.7191 21.566 92.9677 21.062C93.2164 20.5512 93.5088 20.0706 93.8448 19.6203C94.1876 19.17 94.5606 18.7768 94.9639 18.4407C95.3672 18.1047 95.7906 17.8392 96.2342 17.6443C96.6845 17.4427 97.1415 17.3419 97.6053 17.3419C97.7598 17.3419 97.8808 17.3721 97.9682 17.4326C98.0556 17.4931 98.1261 17.5636 98.1799 17.6443C98.2404 17.7182 98.2975 17.7922 98.3513 17.8661C98.4051 17.94 98.4723 17.9938 98.5529 18.0274C98.6336 18.061 98.7142 18.0845 98.7949 18.098C98.8823 18.1047 98.9696 18.1081 99.057 18.1081C99.1309 18.1081 99.2049 18.1081 99.2788 18.1081C99.3595 18.1013 99.4368 18.098 99.5107 18.098C99.6115 18.098 99.7056 18.1081 99.793 18.1282C99.8803 18.1484 99.9576 18.1921 100.025 18.2593C100.092 18.3265 100.142 18.4206 100.176 18.5416C100.216 18.6625 100.237 18.8272 100.237 19.0356C100.237 19.3582 100.203 19.7177 100.136 20.1143C100.069 20.5041 99.9946 20.9074 99.9139 21.3241C99.8333 21.7341 99.7594 22.1474 99.6922 22.5641C99.6249 22.9741 99.5913 23.3639 99.5913 23.7336C99.5913 24.0495 99.6182 24.2981 99.672 24.4796C99.7325 24.6544 99.8568 24.7417 100.045 24.7417C100.186 24.7417 100.334 24.7081 100.489 24.6409C100.643 24.567 100.798 24.4729 100.952 24.3586C101.114 24.2444 101.272 24.1167 101.426 23.9755C101.587 23.8277 101.739 23.6764 101.88 23.5219C102.209 23.1589 102.542 22.7489 102.878 22.2919L103.362 24.53ZM94.7522 23.7336C94.7522 23.9016 94.7623 24.0663 94.7824 24.2276C94.8093 24.3822 94.853 24.5233 94.9135 24.651C94.974 24.772 95.0546 24.8728 95.1554 24.9534C95.2563 25.0274 95.384 25.0643 95.5385 25.0643C95.7872 25.0643 96.0124 24.9568 96.214 24.7417C96.4156 24.5267 96.5904 24.2679 96.7382 23.9654C96.8861 23.663 97.0037 23.3505 97.0911 23.0279C97.1852 22.7053 97.2457 22.4364 97.2726 22.2213L97.8875 19.2574C97.612 19.2574 97.3431 19.3279 97.081 19.4691C96.8189 19.6035 96.5702 19.7883 96.335 20.0236C96.1065 20.2588 95.8948 20.5276 95.6998 20.8301C95.5049 21.1325 95.3369 21.4518 95.1958 21.7878C95.0546 22.1172 94.9437 22.4499 94.8631 22.7859C94.7891 23.122 94.7522 23.4378 94.7522 23.7336ZM102.172 24.893C102.172 24.5972 102.189 24.2545 102.223 23.8646C102.256 23.4681 102.3 23.0514 102.354 22.6145C102.414 22.1776 102.481 21.7341 102.555 21.2837C102.636 20.8267 102.72 20.3932 102.807 19.9832C102.895 19.5732 102.982 19.1969 103.069 18.8541C103.157 18.5113 103.244 18.229 103.332 18.0072C103.385 17.8594 103.439 17.7418 103.493 17.6544C103.547 17.567 103.607 17.4998 103.674 17.4528C103.748 17.399 103.836 17.3654 103.936 17.3519C104.044 17.3318 104.175 17.3217 104.33 17.3217C104.504 17.3217 104.639 17.3318 104.733 17.3519C104.834 17.3654 104.908 17.4057 104.955 17.4729C105.002 17.5334 105.029 17.6241 105.035 17.7451C105.049 17.8661 105.056 18.0308 105.056 18.2391C105.056 18.4878 105.056 18.7902 105.056 19.1465C105.056 19.496 105.062 19.8421 105.076 20.1849H105.187C105.321 19.916 105.472 19.6169 105.64 19.2876C105.808 18.9515 106.003 18.639 106.225 18.35C106.447 18.061 106.699 17.819 106.981 17.6241C107.263 17.4225 107.589 17.3217 107.959 17.3217C108.087 17.3217 108.211 17.3452 108.332 17.3923C108.453 17.4326 108.557 17.4931 108.645 17.5737C108.739 17.6544 108.813 17.7552 108.866 17.8762C108.92 17.9904 108.947 18.1215 108.947 18.2694C108.947 18.3836 108.93 18.5449 108.897 18.7533C108.863 18.9549 108.826 19.17 108.786 19.3985C108.745 19.6203 108.708 19.8387 108.675 20.0538C108.641 20.2621 108.624 20.4369 108.624 20.578C108.624 20.82 108.648 21.0216 108.695 21.1829C108.742 21.3442 108.803 21.4753 108.876 21.5761C108.957 21.6702 109.044 21.7374 109.139 21.7777C109.239 21.8181 109.344 21.8382 109.451 21.8382C109.754 21.8382 110.066 21.771 110.389 21.6366C110.711 21.5022 111.007 21.351 111.276 21.1829C111.592 20.988 111.901 20.7662 112.203 20.5175L112.052 22.8766C111.877 22.9909 111.679 23.1186 111.457 23.2597C111.236 23.4009 110.997 23.5353 110.742 23.663C110.493 23.784 110.231 23.8882 109.955 23.9755C109.686 24.0562 109.411 24.0965 109.129 24.0965C108.624 24.0965 108.218 23.9957 107.909 23.7941C107.599 23.5857 107.354 23.3169 107.173 22.9875C106.991 22.6515 106.857 22.2785 106.769 21.8685C106.682 21.4518 106.611 21.0317 106.558 20.6083H106.396L104.592 25.639C104.498 25.9011 104.407 26.1195 104.32 26.2943C104.239 26.4623 104.155 26.6001 104.068 26.7076C103.98 26.8152 103.886 26.8925 103.785 26.9395C103.684 26.9798 103.574 27 103.453 27C103.177 27 102.955 26.9429 102.787 26.8286C102.619 26.7076 102.488 26.5497 102.394 26.3548C102.307 26.1531 102.246 25.928 102.213 25.6793C102.186 25.4239 102.172 25.1618 102.172 24.893ZM119.271 24.7417C118.625 25.1181 118.051 25.4474 117.547 25.7297C117.043 26.012 116.592 26.2472 116.196 26.4354C115.806 26.6236 115.456 26.7648 115.147 26.8589C114.845 26.953 114.569 27 114.321 27C113.81 27 113.359 26.8454 112.97 26.5362C112.58 26.2271 112.254 25.7835 111.992 25.2055C111.73 24.6207 111.531 23.915 111.397 23.0884C111.269 22.2617 111.205 21.3308 111.205 20.2958C111.205 19.8925 111.222 19.4623 111.256 19.0053C111.289 18.5483 111.336 18.0946 111.397 17.6443C111.195 17.6174 111.037 17.5939 110.923 17.5737C110.815 17.5468 110.698 17.5233 110.57 17.5032C110.449 17.4763 110.291 17.4494 110.096 17.4225C109.908 17.3956 109.633 17.362 109.27 17.3217C109.108 17.3015 108.984 17.2646 108.897 17.2108C108.809 17.1503 108.745 17.0831 108.705 17.0092C108.665 16.9285 108.641 16.8479 108.635 16.7672C108.628 16.6798 108.624 16.6059 108.624 16.5454C108.624 16.411 108.692 16.3102 108.826 16.243C108.954 16.169 109.122 16.1153 109.33 16.0817C109.532 16.0481 109.754 16.0313 109.996 16.0313C110.244 16.0245 110.479 16.0245 110.701 16.0313C110.93 16.038 111.131 16.0447 111.306 16.0514C111.488 16.0514 111.612 16.0447 111.679 16.0313C111.861 15.1239 112.089 14.2468 112.365 13.4C112.647 12.5464 112.959 11.7903 113.302 11.1316C113.652 10.4662 114.032 9.93526 114.441 9.53872C114.851 9.13546 115.282 8.93382 115.732 8.93382C116.021 8.93382 116.283 9.01448 116.518 9.17578C116.76 9.33709 116.965 9.55216 117.133 9.821C117.301 10.0898 117.429 10.4057 117.516 10.7687C117.61 11.1249 117.658 11.4979 117.658 11.8877C117.658 12.2171 117.61 12.5666 117.516 12.9362C117.422 13.2991 117.295 13.6722 117.133 14.0553C116.972 14.4316 116.78 14.8147 116.559 15.2046C116.344 15.5944 116.115 15.9808 115.873 16.3639C115.934 16.3707 116.034 16.3774 116.176 16.3841C116.317 16.3841 116.478 16.3875 116.659 16.3942C116.848 16.4009 117.049 16.411 117.264 16.4244C117.479 16.4312 117.688 16.4379 117.889 16.4446C118.091 16.4513 118.279 16.458 118.454 16.4648C118.629 16.4715 118.773 16.4782 118.887 16.4849C119.022 16.4916 119.119 16.5589 119.18 16.6866C119.24 16.8143 119.271 16.9756 119.271 17.1705C119.271 17.4057 119.203 17.5973 119.069 17.7451C118.935 17.893 118.787 17.9669 118.625 17.9669H114.754C114.559 18.2358 114.361 18.5012 114.159 18.7634C113.964 19.0188 113.783 19.2506 113.615 19.459C113.588 19.8757 113.564 20.2857 113.544 20.6889C113.538 20.8637 113.531 21.0452 113.524 21.2333C113.517 21.4148 113.511 21.5963 113.504 21.7777C113.497 21.9592 113.49 22.134 113.484 22.302C113.484 22.47 113.484 22.6246 113.484 22.7657C113.484 23.1287 113.517 23.4345 113.585 23.6832C113.652 23.9318 113.749 24.1368 113.877 24.2981C114.005 24.4527 114.159 24.567 114.341 24.6409C114.529 24.7081 114.737 24.7417 114.966 24.7417C115.107 24.7417 115.282 24.7081 115.49 24.6409C115.705 24.5737 115.937 24.483 116.186 24.3687C116.441 24.2477 116.706 24.1066 116.982 23.9453C117.264 23.784 117.54 23.6092 117.809 23.421C118.084 23.2261 118.346 23.0245 118.595 22.8161C118.844 22.6011 119.069 22.3826 119.271 22.1608V24.7417ZM116.044 11.9785C116.044 11.9045 116.038 11.8239 116.024 11.7365C116.018 11.6424 115.997 11.555 115.964 11.4744C115.93 11.3937 115.876 11.3265 115.803 11.2727C115.735 11.219 115.638 11.1921 115.51 11.1921C115.335 11.1921 115.157 11.3467 114.976 11.6558C114.801 11.965 114.63 12.3616 114.462 12.8455C114.3 13.3227 114.146 13.8503 113.998 14.4283C113.857 15.0063 113.726 15.5675 113.605 16.1119C113.706 16.1253 113.806 16.1388 113.907 16.1522C114.008 16.159 114.112 16.169 114.22 16.1825C114.421 15.8397 114.63 15.47 114.845 15.0735C115.067 14.6702 115.265 14.2771 115.44 13.894C115.614 13.5041 115.759 13.1412 115.873 12.8051C115.987 12.4691 116.044 12.1935 116.044 11.9785ZM125.098 24.8526C124.856 25.0744 124.553 25.313 124.19 25.5684C123.834 25.8171 123.448 26.049 123.031 26.264C122.614 26.4724 122.187 26.6471 121.751 26.7883C121.32 26.9294 120.91 27 120.521 27C120.171 27 119.875 26.953 119.633 26.8589C119.398 26.758 119.207 26.6203 119.059 26.4455C118.911 26.2708 118.803 26.0591 118.736 25.8104C118.676 25.555 118.646 25.2761 118.646 24.9736C118.646 24.5502 118.693 24.0595 118.787 23.5017C118.887 22.9371 119.008 22.3558 119.15 21.7576C119.291 21.1527 119.439 20.5512 119.593 19.953C119.754 19.3548 119.896 18.8037 120.017 18.2996C120.064 18.1249 120.158 17.977 120.299 17.856C120.44 17.7283 120.598 17.6275 120.773 17.5536C120.954 17.4729 121.139 17.4158 121.327 17.3822C121.522 17.3419 121.697 17.3217 121.851 17.3217C122.134 17.3217 122.325 17.3755 122.426 17.483C122.527 17.5838 122.577 17.7216 122.577 17.8963C122.577 18.0442 122.544 18.2593 122.477 18.5416C122.409 18.8171 122.325 19.133 122.224 19.4892C122.124 19.8387 122.016 20.2185 121.902 20.6284C121.788 21.0317 121.68 21.4383 121.579 21.8483C121.478 22.2516 121.394 22.6481 121.327 23.0379C121.26 23.421 121.226 23.7672 121.226 24.0763C121.226 24.3788 121.26 24.6207 121.327 24.8022C121.394 24.977 121.532 25.0643 121.741 25.0643C121.983 25.0643 122.251 24.9803 122.547 24.8123C122.843 24.6443 123.142 24.4426 123.444 24.2074C123.747 23.9654 124.043 23.7168 124.332 23.4614C124.621 23.206 124.876 22.9875 125.098 22.8061V24.8526ZM120.591 14.4888C120.591 14.3342 120.625 14.1594 120.692 13.9645C120.759 13.7696 120.867 13.5881 121.015 13.4201C121.169 13.2454 121.371 13.1009 121.62 12.9866C121.875 12.8656 122.191 12.8051 122.567 12.8051C122.802 12.8051 123.024 12.832 123.233 12.8858C123.441 12.9396 123.622 13.0236 123.777 13.1378C123.932 13.2454 124.053 13.3899 124.14 13.5713C124.234 13.7528 124.281 13.9679 124.281 14.2166C124.281 14.4451 124.244 14.6669 124.17 14.882C124.096 15.097 123.979 15.2886 123.817 15.4566C123.656 15.6246 123.451 15.7624 123.202 15.8699C122.96 15.9708 122.668 16.0212 122.325 16.0212C121.734 16.0212 121.297 15.8834 121.015 15.6078C120.732 15.3255 120.591 14.9525 120.591 14.4888ZM124.392 24.893C124.392 24.4494 124.419 23.9386 124.473 23.3606C124.526 22.7758 124.594 22.1844 124.674 21.5862C124.755 20.9813 124.846 20.3999 124.946 19.8421C125.047 19.2842 125.145 18.807 125.239 18.4105C125.313 18.1013 125.454 17.8426 125.662 17.6342C125.877 17.4259 126.166 17.3217 126.529 17.3217C126.892 17.3217 127.144 17.4326 127.285 17.6544C127.427 17.8762 127.497 18.1719 127.497 18.5416C127.497 18.6424 127.487 18.7802 127.467 18.9549C127.447 19.1229 127.42 19.3111 127.386 19.5195C127.359 19.7211 127.329 19.9328 127.295 20.1546C127.262 20.3697 127.228 20.5713 127.195 20.7595C127.168 20.941 127.144 21.1023 127.124 21.2434C127.104 21.3778 127.094 21.4686 127.094 21.5156H127.295C127.336 21.4417 127.4 21.3241 127.487 21.1628C127.574 20.9947 127.675 20.8032 127.789 20.5881C127.904 20.373 128.025 20.1479 128.152 19.9127C128.287 19.6707 128.411 19.4422 128.525 19.2271C128.64 19.0053 128.744 18.8104 128.838 18.6424C128.932 18.4744 129.003 18.35 129.05 18.2694C129.265 17.9064 129.51 17.6577 129.786 17.5233C130.061 17.3889 130.367 17.3217 130.703 17.3217C131.039 17.3217 131.305 17.4628 131.5 17.7451C131.701 18.0274 131.802 18.4172 131.802 18.9146C131.802 18.9885 131.785 19.1129 131.752 19.2876C131.725 19.4623 131.688 19.6707 131.641 19.9127C131.594 20.1546 131.54 20.4201 131.479 20.7091C131.426 20.9981 131.375 21.2938 131.328 21.5963C131.281 21.8987 131.241 22.1978 131.207 22.4935C131.18 22.7893 131.167 23.0615 131.167 23.3101C131.167 23.7268 131.217 24.0696 131.318 24.3385C131.426 24.6073 131.59 24.7417 131.812 24.7417C131.913 24.7417 132.027 24.7115 132.155 24.651C132.289 24.5905 132.43 24.5132 132.578 24.4191C132.733 24.3183 132.887 24.204 133.042 24.0763C133.203 23.9486 133.361 23.8176 133.516 23.6832C133.872 23.3673 134.245 23.0111 134.635 22.6145L134.806 24.8728L134.302 25.2559C134.027 25.4642 133.744 25.6726 133.455 25.8809C133.173 26.0893 132.877 26.2775 132.568 26.4455C132.259 26.6068 131.936 26.7412 131.6 26.8488C131.264 26.9496 130.911 27 130.542 27C130.172 27 129.86 26.7345 129.604 26.2036C129.355 25.6659 129.231 24.8829 129.231 23.8545C129.231 23.4513 129.258 23.0178 129.312 22.554C129.366 22.0836 129.433 21.5795 129.513 21.0418H129.352L126.711 26.2842C126.576 26.5598 126.425 26.748 126.257 26.8488C126.089 26.9496 125.894 27 125.672 27C125.397 27 125.175 26.9429 125.007 26.8286C124.839 26.7076 124.708 26.5497 124.614 26.3548C124.526 26.1531 124.466 25.928 124.432 25.6793C124.405 25.4239 124.392 25.1618 124.392 24.893ZM133.425 23.1287C133.801 22.8061 134.107 22.5372 134.342 22.3222C134.578 22.1071 134.779 21.9122 134.947 21.7374C135.115 21.556 135.267 21.3745 135.401 21.193C135.542 21.0115 135.707 20.7965 135.895 20.5478C136.083 20.2991 136.312 19.9967 136.581 19.6405C136.849 19.2775 137.199 18.8272 137.629 18.2895C137.716 18.1685 137.814 18.0509 137.921 17.9367C138.029 17.8224 138.147 17.7216 138.274 17.6342C138.409 17.5401 138.553 17.4662 138.708 17.4124C138.869 17.3519 139.047 17.3217 139.242 17.3217C139.565 17.3217 139.813 17.3587 139.988 17.4326C140.163 17.4998 140.291 17.5838 140.371 17.6846C140.452 17.7854 140.499 17.893 140.512 18.0072C140.526 18.1148 140.533 18.2089 140.533 18.2895C140.533 18.4508 140.469 18.6289 140.341 18.8238C140.213 19.0188 140.072 19.2069 139.918 19.3884C139.763 19.5699 139.615 19.7379 139.474 19.8925C139.34 20.0404 139.262 20.1513 139.242 20.2252C139.242 20.4335 139.256 20.6251 139.282 20.7998C139.316 20.9679 139.356 21.1359 139.403 21.3039C139.457 21.4652 139.511 21.64 139.565 21.8282C139.619 22.0096 139.669 22.2213 139.716 22.4633C139.77 22.7053 139.81 22.9842 139.837 23.3001C139.871 23.616 139.887 23.989 139.887 24.4191C140.129 24.2578 140.388 24.1133 140.664 23.9856C140.946 23.8512 141.238 23.7134 141.541 23.5723C141.843 23.4311 142.152 23.2765 142.468 23.1085C142.791 22.9338 143.113 22.7254 143.436 22.4835L143.446 24.7417C143.029 25.0643 142.546 25.3668 141.994 25.6491C141.45 25.9314 140.875 26.18 140.27 26.3951C139.672 26.6102 139.064 26.7816 138.446 26.9093C137.834 27.0302 137.253 27.0907 136.702 27.0907C136.305 27.0907 135.935 27.0538 135.593 26.9798C135.25 26.9059 134.947 26.7916 134.685 26.6371C134.43 26.4758 134.222 26.2674 134.06 26.012C133.899 25.7566 133.801 25.4474 133.768 25.0845C133.674 25.1047 133.58 25.1181 133.486 25.1248C133.398 25.1315 133.311 25.1349 133.223 25.1349C133.116 25.1349 133.015 25.1315 132.921 25.1248C132.827 25.1181 132.746 25.0946 132.679 25.0543C132.612 25.0072 132.558 24.9366 132.518 24.8425C132.477 24.7417 132.457 24.6006 132.457 24.4191C132.457 24.2578 132.498 24.1099 132.578 23.9755C132.659 23.8344 132.753 23.71 132.861 23.6025C132.968 23.495 133.076 23.4009 133.183 23.3202C133.291 23.2396 133.371 23.1757 133.425 23.1287ZM134.716 24.4191C134.796 24.4191 134.884 24.4695 134.978 24.5703C135.078 24.6712 135.193 24.7821 135.32 24.903C135.448 25.024 135.596 25.1349 135.764 25.2357C135.932 25.3365 136.124 25.3869 136.339 25.3869C136.601 25.3869 136.816 25.3433 136.984 25.2559C137.159 25.1685 137.296 25.0543 137.397 24.9131C137.498 24.7653 137.569 24.5972 137.609 24.409C137.649 24.2141 137.669 24.0125 137.669 23.8041C137.669 23.6227 137.656 23.4378 137.629 23.2497C137.609 23.0615 137.579 22.8834 137.538 22.7153C137.505 22.5406 137.464 22.3793 137.417 22.2314C137.377 22.0768 137.34 21.9458 137.306 21.8382L134.716 24.4191Z" fill="#FB1198"/>
<path d="M65.5235 35.4222C65.5806 35.066 65.3689 34.8089 64.8884 34.651L64.2936 34.4695L63.9357 34.3385C63.0854 34.0024 62.6822 33.4782 62.7259 32.7657C62.7561 32.2449 62.9947 31.8265 63.4417 31.5106C63.892 31.1947 64.4381 31.0401 65.0799 31.0468C65.7117 31.0636 66.2158 31.235 66.5922 31.561C66.9685 31.887 67.1534 32.3222 67.1466 32.8666L65.9621 32.8615C65.9721 32.5725 65.8898 32.3558 65.7151 32.2113C65.5437 32.0668 65.3168 31.9928 65.0346 31.9895C64.722 31.9895 64.4616 32.0567 64.2532 32.1911C64.0482 32.3255 63.9256 32.5053 63.8853 32.7305C63.8281 33.0564 64.065 33.2984 64.596 33.4563C65.1303 33.6109 65.5151 33.7504 65.7503 33.8747C66.409 34.2208 66.7215 34.7266 66.6879 35.392C66.6644 35.7549 66.5451 36.0641 66.33 36.3195C66.1183 36.5715 65.831 36.7648 65.4681 36.8992C65.1051 37.0302 64.7086 37.0907 64.2784 37.0807C63.7475 37.0739 63.2904 36.9513 62.9073 36.7127C62.3495 36.3632 62.0773 35.8524 62.0907 35.1803L63.2804 35.1853C63.2636 35.4978 63.3459 35.7364 63.5274 35.9011C63.7122 36.0658 63.9894 36.1481 64.3591 36.1481C64.6851 36.1481 64.9505 36.0843 65.1555 35.9566C65.3639 35.8255 65.4865 35.6474 65.5235 35.4222ZM72.752 32.1155H70.8667L70.0199 37H68.8252L69.6721 32.1155H67.807L67.9834 31.1275H72.9284L72.752 32.1155ZM78.3624 31.1275L77.7172 34.9938C77.6264 35.6457 77.3425 36.1615 76.8653 36.5413C76.3914 36.9177 75.8017 37.0991 75.096 37.0857C74.4205 37.0723 73.8946 36.874 73.5182 36.4909C73.1418 36.1044 72.9872 35.6071 73.0544 34.9988L73.7047 31.1275H74.8943L74.239 35.0038C74.2021 35.3433 74.2592 35.6087 74.4104 35.8003C74.565 35.9918 74.8154 36.0927 75.1615 36.1027C75.5211 36.1162 75.8202 36.0305 76.0588 35.8457C76.2973 35.6575 76.4469 35.3869 76.5074 35.0341L77.1677 31.1275H78.3624ZM78.4229 37L79.4411 31.1275L81.2256 31.1325C81.733 31.146 82.1749 31.2737 82.5513 31.5156C82.931 31.7542 83.2116 32.0869 83.3931 32.5137C83.5746 32.9371 83.6384 33.4059 83.5846 33.9201L83.5594 34.1419C83.462 34.9921 83.1175 35.681 82.5261 36.2086C81.938 36.7362 81.1987 37 80.3081 37H78.4229ZM80.4644 32.1155L79.7889 36.0221L80.3535 36.0271C80.9214 36.0271 81.3785 35.8658 81.7246 35.5432C82.0741 35.2172 82.2892 34.7501 82.3698 34.1419L82.4001 33.9201C82.4269 33.6815 82.4303 33.4546 82.4101 33.2396C82.3765 32.8901 82.2572 32.6196 82.0522 32.428C81.8506 32.2365 81.565 32.134 81.1953 32.1205L80.4644 32.1155ZM85.3439 37H84.1492L85.1725 31.1275H86.3621L85.3439 37ZM89.1245 37.0807C88.6305 37.0672 88.207 36.9362 87.8542 36.6875C87.5047 36.4354 87.251 36.0927 87.093 35.6592C86.9384 35.2223 86.8897 34.74 86.9468 34.2124L86.9922 33.8747C87.0729 33.3202 87.251 32.8245 87.5265 32.3877C87.8055 31.9475 88.1566 31.6114 88.5801 31.3795C89.0035 31.1443 89.4706 31.0334 89.9814 31.0468C90.4754 31.0603 90.8955 31.1897 91.2416 31.435C91.5877 31.6803 91.8381 32.0231 91.9927 32.4633C92.1506 32.9002 92.201 33.3807 92.1439 33.905L92.1288 34.0461C92.0212 34.9837 91.6919 35.7297 91.1408 36.2842C90.593 36.8353 89.9209 37.1008 89.1245 37.0807ZM90.9543 33.8949C90.9744 33.6899 90.9795 33.4799 90.9694 33.2648C90.9526 32.8951 90.8535 32.6011 90.672 32.3826C90.4939 32.1642 90.2402 32.0483 89.9108 32.0348C89.3933 32.0147 88.9732 32.2247 88.6506 32.6649C88.328 33.1052 88.1516 33.71 88.1214 34.4796L88.1264 34.8425C88.1432 35.2223 88.2423 35.5247 88.4238 35.7499C88.6086 35.9717 88.864 36.0893 89.19 36.1027C89.6437 36.1195 90.0251 35.9549 90.3343 35.6087C90.6434 35.2626 90.84 34.7686 90.924 34.1268L90.9543 33.8949ZM95.1684 37L96.1866 31.1275L97.971 31.1325C98.4785 31.146 98.9204 31.2737 99.2968 31.5156C99.6765 31.7542 99.9571 32.0869 100.139 32.5137C100.32 32.9371 100.384 33.4059 100.33 33.9201L100.305 34.1419C100.207 34.9921 99.863 35.681 99.2716 36.2086C98.6835 36.7362 97.9442 37 97.0536 37H95.1684ZM97.2099 32.1155L96.5344 36.0221L97.099 36.0271C97.6669 36.0271 98.124 35.8658 98.4701 35.5432C98.8196 35.2172 99.0347 34.7501 99.1153 34.1419L99.1455 33.9201C99.1724 33.6815 99.1758 33.4546 99.1556 33.2396C99.122 32.8901 99.0027 32.6196 98.7977 32.428C98.5961 32.2365 98.3105 32.134 97.9408 32.1205L97.2099 32.1155ZM104.554 35.7448H102.205L101.52 37H100.265L103.586 31.1275H104.685L105.961 37H104.801L104.554 35.7448ZM102.714 34.8123H104.368L103.929 32.5944L102.714 34.8123ZM110.134 35.4222C110.192 35.066 109.98 34.8089 109.499 34.651L108.905 34.4695L108.547 34.3385C107.696 34.0024 107.293 33.4782 107.337 32.7657C107.367 32.2449 107.606 31.8265 108.053 31.5106C108.503 31.1947 109.049 31.0401 109.691 31.0468C110.323 31.0636 110.827 31.235 111.203 31.561C111.579 31.887 111.764 32.3222 111.758 32.8666L110.573 32.8615C110.583 32.5725 110.501 32.3558 110.326 32.2113C110.155 32.0668 109.928 31.9928 109.646 31.9895C109.333 31.9895 109.073 32.0567 108.864 32.1911C108.659 32.3255 108.537 32.5053 108.496 32.7305C108.439 33.0564 108.676 33.2984 109.207 33.4563C109.741 33.6109 110.126 33.7504 110.361 33.8747C111.02 34.2208 111.332 34.7266 111.299 35.392C111.275 35.7549 111.156 36.0641 110.941 36.3195C110.729 36.5715 110.442 36.7648 110.079 36.8992C109.716 37.0302 109.32 37.0907 108.889 37.0807C108.358 37.0739 107.901 36.9513 107.518 36.7127C106.96 36.3632 106.688 35.8524 106.702 35.1803L107.891 35.1853C107.875 35.4978 107.957 35.7364 108.138 35.9011C108.323 36.0658 108.6 36.1481 108.97 36.1481C109.296 36.1481 109.561 36.0843 109.766 35.9566C109.975 35.8255 110.097 35.6474 110.134 35.4222ZM120.171 31.1275L119.525 34.9938C119.435 35.6457 119.151 36.1615 118.674 36.5413C118.2 36.9177 117.61 37.0991 116.904 37.0857C116.229 37.0723 115.703 36.874 115.326 36.4909C114.95 36.1044 114.796 35.6071 114.863 34.9988L115.513 31.1275H116.703L116.047 35.0038C116.01 35.3433 116.067 35.6087 116.219 35.8003C116.373 35.9918 116.624 36.0927 116.97 36.1027C117.329 36.1162 117.628 36.0305 117.867 35.8457C118.106 35.6575 118.255 35.3869 118.316 35.0341L118.976 31.1275H120.171ZM125.171 37H124.022L122.132 32.9422L121.426 37H120.231L121.249 31.1275H122.404L124.294 35.1904L125 31.1275H126.189L125.171 37ZM131.316 37H130.121L130.535 34.6056H127.984L127.566 37H126.371L127.389 31.1275H128.584L128.15 33.6227H130.706L131.139 31.1275H132.334L131.316 37ZM136.251 35.7448H133.902L133.216 37H131.961L135.283 31.1275H136.382L137.657 37H136.498L136.251 35.7448ZM134.411 34.8123H136.064L135.626 32.5944L134.411 34.8123ZM141.831 35.4222C141.888 35.066 141.676 34.8089 141.196 34.651L140.601 34.4695L140.243 34.3385C139.393 34.0024 138.99 33.4782 139.033 32.7657C139.064 32.2449 139.302 31.8265 139.749 31.5106C140.199 31.1947 140.745 31.0401 141.387 31.0468C142.019 31.0636 142.523 31.235 142.9 31.561C143.276 31.887 143.461 32.3222 143.454 32.8666L142.269 32.8615C142.28 32.5725 142.197 32.3558 142.022 32.2113C141.851 32.0668 141.624 31.9928 141.342 31.9895C141.029 31.9895 140.769 32.0567 140.561 32.1911C140.356 32.3255 140.233 32.5053 140.193 32.7305C140.136 33.0564 140.372 33.2984 140.903 33.4563C141.438 33.6109 141.823 33.7504 142.058 33.8747C142.716 34.2208 143.029 34.7266 142.995 35.392C142.972 35.7549 142.853 36.0641 142.637 36.3195C142.426 36.5715 142.138 36.7648 141.775 36.8992C141.413 37.0302 141.016 37.0907 140.586 37.0807C140.055 37.0739 139.598 36.9513 139.215 36.7127C138.657 36.3632 138.385 35.8524 138.398 35.1803L139.588 35.1853C139.571 35.4978 139.653 35.7364 139.835 35.9011C140.02 36.0658 140.297 36.1481 140.667 36.1481C140.992 36.1481 141.258 36.0843 141.463 35.9566C141.671 35.8255 141.794 35.6474 141.831 35.4222Z" fill="#FB1198"/>
</g>
<defs>
<filter id="filter0_i" x="0" y="0" width="143.454" height="39.1" filterUnits="userSpaceOnUse" color-interpolation-filters="sRGB">
<feFlood flood-opacity="0" result="BackgroundImageFix"/>
<feBlend mode="normal" in="SourceGraphic" in2="BackgroundImageFix" result="shape"/>
<feColorMatrix in="SourceAlpha" type="matrix" values="0 0 0 0 0 0 0 0 0 0 0 0 0 0 0 0 0 0 127 0" result="hardAlpha"/>
<feOffset dy="4"/>
<feGaussianBlur stdDeviation="0.05"/>
<feComposite in2="hardAlpha" operator="arithmetic" k2="-1" k3="1"/>
<feColorMatrix type="matrix" values="0 0 0 0 0 0 0 0 0 0 0 0 0 0 0 0 0 0 0.04 0"/>
<feBlend mode="normal" in2="shape" result="effect1_innerShadow"/>
</filter>
</defs>
</svg>
